FrancaisAudiardAudiard...LA.CHASSE.A.L.HOMME...1964..DVDRIP..[rare].AVI
Format                                   : AVI
Format/Info                              : Audio Video Interleave
File size                                : 692 MiB
Duration                                 : 1h 26mn
Overall bit rate                         : 1 111 Kbps

Video
ID                                       : 0
Format                                   : MPEG-4 Visual
Format settings, BVOP                    : Yes
Format settings, QPel                    : No
Format settings, GMC                     : No warppoints
Format settings, Matrix                  : Default (H.263)
Codec ID                                 : DX50
Codec ID/Hint                            : DivX 5
Duration                                 : 1h 26mn
Bit rate                                 : 970 Kbps
Width                                    : 720 pixels
Height                                   : 496 pixels
Display aspect ratio                     : 3:2
Frame rate                               : 25.000 fps
Color space                              : YUV
Chroma subsampling                       : 4:2:0
Bit depth                                : 8 bits
Scan type                                : Progressive
Compression mode                         : Lossy
Bits/(Pixel*Frame)                       : 0.109
Stream size                              : 604 MiB (87%)
Title                                    : DVD2VIDEO
Writing library                          : DivX 5.1.1 (Maupiti) (UTC 2003-11-19)

Audio
ID                                       : 1
Format                                   : MPEG Audio
Format version                           : Version 1
Format profile                           : Layer 3
Mode                                     : Joint stereo
Mode extension                           : MS Stereo
Codec ID                                 : 55
Codec ID/Hint                            : MP3
Duration                                 : 1h 26mn
Bit rate mode                            : Constant
Bit rate                                 : 128 Kbps
Channel(s)                               : 2 channels
Sampling rate                            : 48.0 KHz
Compression mode                         : Lossy
Stream size                              : 79.6 MiB (12%)
Alignment                                : Split accross interleaves
Interleave, duration                     : 24 ms (0.60 video frame)
Title                                    : DVD2AUDIO00
